<svg width="199" height="53" viewBox="0 0 199 53" fill="none" xmlns="http://www.w3.org/2000/svg">
<path d="M31.658 27.5392C32.858 29.4192 33.078 31.3592 32.318 33.3592C31.598 35.3192 30.458 37.0992 28.898 38.6992C27.338 40.2592 25.738 41.3792 24.098 42.0592C21.298 43.3392 18.378 43.8592 15.338 43.6192C12.338 43.3792 9.63801 42.2592 7.23801 40.2592C5.15801 38.5792 3.65801 36.5792 2.73801 34.2592C1.85801 31.8992 1.23801 29.0792 0.878008 25.7992C0.678008 24.1592 0.838008 22.4792 1.35801 20.7592C1.91801 19.0392 2.71801 17.4592 3.75801 16.0192C4.83801 14.5792 6.11801 13.3192 7.59801 12.2392C9.07801 11.1192 10.598 10.2992 12.158 9.77916C13.718 9.21916 15.338 9.03916 17.018 9.23916C18.738 9.43916 20.278 10.0392 21.638 11.0392C24.718 13.3592 26.198 15.8392 26.078 18.4792C25.998 20.1192 25.398 21.4992 24.278 22.6192C23.158 23.6992 21.818 24.1992 20.258 24.1192C19.898 24.1192 19.398 24.0592 18.758 23.9392C18.158 23.7792 17.618 23.6792 17.138 23.6392C16.658 23.5592 16.158 23.5392 15.638 23.5792C15.158 23.5792 14.778 23.7792 14.498 24.1792C14.218 24.5392 14.058 25.0592 14.018 25.7392C13.978 26.5392 14.138 27.1592 14.498 27.5992C14.858 27.9992 15.318 28.2392 15.878 28.3192C16.478 28.3992 17.058 28.4192 17.618 28.3792C18.218 28.2992 18.818 28.1592 19.418 27.9592C19.898 27.7992 20.658 27.4992 21.698 27.0592C22.778 26.6192 23.698 26.2792 24.458 26.0392C25.258 25.7992 26.118 25.5992 27.038 25.4392C27.998 25.2792 28.858 25.3792 29.618 25.7392C30.418 26.0592 31.098 26.6592 31.658 27.5392ZM64.5896 33.2992C64.0296 35.3792 62.7696 37.2992 60.8096 39.0592C58.8496 40.8192 56.7096 42.0992 54.3896 42.8992C52.0696 43.6992 49.7096 43.8592 47.3096 43.3792C44.9096 42.9392 43.0696 41.7392 41.7896 39.7792C40.9096 38.4992 40.3496 36.9192 40.1096 35.0392C39.8696 33.1592 39.7696 31.0792 39.8096 28.7992C39.8496 26.4792 39.7696 24.7392 39.5696 23.5792C39.0496 20.4992 38.7896 17.1392 38.7896 13.4992C38.8296 9.85916 39.2696 7.05916 40.1096 5.09916C40.3496 4.49916 40.7496 3.89916 41.3096 3.29916C41.9096 2.69916 42.6096 2.19916 43.4096 1.79916C44.2496 1.35916 45.1696 1.33916 46.1696 1.73916C47.1696 2.09916 48.1096 2.93916 48.9896 4.25916C49.6296 5.25916 50.1296 6.45916 50.4896 7.85916C50.8496 9.25916 51.0696 10.4392 51.1496 11.3992C51.2696 12.3592 51.3496 13.7792 51.3896 15.6592C51.4696 17.4992 51.5296 18.7192 51.5696 19.3192C51.5696 19.3592 51.5696 19.9392 51.5696 21.0592C51.6096 22.1392 51.6896 23.0592 51.8096 23.8192C51.9296 24.5392 52.1096 25.0792 52.3496 25.4392C52.7496 26.0392 53.1296 26.3992 53.4896 26.5192C53.8496 26.5992 54.1496 26.5592 54.3896 26.3992C54.6696 26.1992 55.0496 25.9392 55.5296 25.6192C56.0096 25.2992 56.4696 25.0792 56.9096 24.9592C58.5896 24.5192 60.1096 24.6992 61.4696 25.4992C62.8296 26.2992 63.7896 27.4392 64.3496 28.9192C64.9096 30.3992 64.9896 31.8592 64.5896 33.2992ZM94.2197 32.6992C95.0197 31.5392 94.9397 30.9592 93.9797 30.9592C92.8997 30.9192 91.7997 31.4192 90.6797 32.4592C89.7597 33.2992 89.3997 34.1392 89.5997 34.9792C89.9597 36.2992 91.1397 35.9392 93.1397 33.8992C93.6597 33.4192 94.0197 33.0192 94.2197 32.6992ZM116.9 19.9792C117.7 22.8992 117.66 26.1592 116.78 29.7592C115.9 33.3192 114.26 35.8592 111.86 37.3792C110.74 38.0592 109.4 38.5392 107.84 38.8192C106.28 39.0992 104.82 39.2192 103.46 39.1792C102.1 39.1392 100.6 39.2392 98.9597 39.4792C97.3197 39.7192 95.9197 40.1592 94.7597 40.7992C93.4397 41.4792 92.1797 41.9992 90.9797 42.3592C89.7797 42.6792 88.5797 42.7992 87.3797 42.7192C86.2197 42.6392 85.1997 42.1792 84.3197 41.3392C83.4397 40.4992 82.8197 39.2592 82.4597 37.6192C81.7397 34.7392 82.1397 32.0592 83.6597 29.5792C85.2197 27.0592 87.4397 25.5792 90.3197 25.1392C90.6797 25.0992 91.2797 25.1192 92.1197 25.1992C92.9997 25.2392 93.7397 25.2192 94.3397 25.1392C94.9397 25.0192 95.3997 24.7392 95.7197 24.2992C96.5997 23.0192 96.3597 22.2192 94.9997 21.8992C93.9997 21.6592 93.0397 21.7792 92.1197 22.2592C91.8397 22.4192 91.3997 22.6992 90.7997 23.0992C90.2397 23.4992 89.7597 23.7992 89.3597 23.9992C88.9597 24.1992 88.4997 24.3792 87.9797 24.5392C87.4597 24.6592 86.9597 24.5792 86.4797 24.2992C86.0397 24.0192 85.6197 23.5592 85.2197 22.9192C84.5397 21.7192 84.5197 20.2992 85.1597 18.6592C85.7997 17.0192 86.6997 15.6792 87.8597 14.6392C89.8597 12.8792 92.0797 12.0792 94.5197 12.2392C96.9597 12.3992 99.0997 13.4792 100.94 15.4792C101.9 16.5592 102.66 17.8992 103.22 19.4992C103.78 21.0992 104.1 22.7192 104.18 24.3592C104.18 24.3592 104.18 24.3792 104.18 24.4192C104.18 24.4592 104.18 24.4992 104.18 24.5392C104.18 24.9792 104.18 25.3192 104.18 25.5592C104.22 25.7992 104.26 26.1792 104.3 26.6992C104.34 27.1792 104.4 27.5592 104.48 27.8392C104.56 28.1192 104.66 28.4592 104.78 28.8592C104.94 29.2192 105.12 29.4792 105.32 29.6392C105.52 29.7592 105.74 29.8592 105.98 29.9392C106.26 29.9792 106.58 29.9192 106.94 29.7592C107.3 29.5592 107.7 29.2592 108.14 28.8592C109.26 27.8192 109.92 26.5192 110.12 24.9592C110.36 23.3992 110.2 21.8392 109.64 20.2792C109.08 18.7192 108.38 17.2592 107.54 15.8992C106.7 14.5392 105.8 13.3992 104.84 12.4792C103.28 10.9992 101.44 9.97916 99.3197 9.41916C97.1997 8.81916 95.0797 8.65916 92.9597 8.93916C90.8397 9.21916 88.8197 9.83916 86.8997 10.7992C84.6597 11.9592 82.6597 13.4992 80.8997 15.4192C79.1397 17.3392 77.7797 19.4792 76.8197 21.8392C75.8997 24.1992 75.3597 26.5992 75.1997 29.0392C75.0397 31.4392 75.4597 33.8392 76.4597 36.2392C77.4997 38.5992 79.1197 40.6592 81.3197 42.4192C84.4797 45.0192 89.5597 45.7592 96.5597 44.6392C96.6397 44.6392 96.7397 44.6392 96.8597 44.6392C97.6997 44.5192 98.4997 44.4192 99.2597 44.3392C100.02 44.2592 100.6 44.4592 101 44.9392C101.44 45.4192 101.54 46.1992 101.3 47.2792C100.78 49.7592 98.3597 51.2592 94.0397 51.7792C90.7597 52.1792 87.5797 51.8192 84.4997 50.6992C81.4597 49.5792 78.8397 47.9392 76.6397 45.7792C74.4397 43.6192 72.6397 41.0592 71.2397 38.0992C69.8797 35.1392 69.1397 32.0592 69.0197 28.8592C68.8197 24.8192 69.7197 20.8192 71.7197 16.8592C73.7197 12.8592 76.4797 9.49916 79.9997 6.77916C83.5597 4.05916 87.3597 2.41916 91.3997 1.85916C97.4397 1.01916 102.78 2.31916 107.42 5.75916C112.1 9.19916 115.26 13.9392 116.9 19.9792ZM153.618 25.1992C153.098 26.8792 152.418 28.5792 151.578 30.2992C150.778 31.9792 149.818 33.6792 148.698 35.3992C147.578 37.0792 146.298 38.5592 144.858 39.8392C143.418 41.0792 141.898 42.0592 140.298 42.7792C138.738 43.4992 137.018 43.7592 135.138 43.5592C133.258 43.3992 131.358 42.6992 129.438 41.4592C126.838 39.7392 124.858 37.2392 123.498 33.9592C122.138 30.6792 121.658 27.4592 122.058 24.2992C122.938 17.0192 125.278 12.7592 129.078 11.5192C130.518 11.0792 131.938 11.1992 133.338 11.8792C134.778 12.5592 135.738 13.6392 136.218 15.1192C136.498 15.9592 136.498 16.8792 136.218 17.8792C135.938 18.8792 135.558 19.7792 135.078 20.5792C134.638 21.3392 134.258 22.1992 133.938 23.1592C133.658 24.1192 133.638 24.9592 133.878 25.6792C134.198 26.5592 134.718 27.0392 135.438 27.1192C136.158 27.1992 136.858 26.9992 137.538 26.5192C138.258 25.9992 138.838 25.3792 139.278 24.6592C139.878 23.6592 140.338 21.9392 140.658 19.4992C140.978 17.0592 141.358 15.3592 141.798 14.3992C142.438 12.9992 143.398 11.7992 144.678 10.7992C145.958 9.79916 147.318 9.25916 148.758 9.17916C150.238 9.05916 151.618 9.71916 152.898 11.1592C153.698 12.1592 154.218 13.5792 154.458 15.4192C154.698 17.2592 154.718 19.0192 154.518 20.6992C154.318 22.3392 154.018 23.8392 153.618 25.1992ZM168.263 21.8392C167.663 22.2392 167.503 22.8792 167.783 23.7592C168.103 24.5992 168.563 25.4592 169.163 26.3392C169.803 27.1792 170.523 27.9192 171.323 28.5592C172.123 29.1592 172.743 29.4192 173.183 29.3392C174.063 29.0992 174.023 27.9992 173.063 26.0392C172.103 23.9192 171.003 22.5392 169.763 21.8992C169.163 21.5792 168.663 21.5592 168.263 21.8392ZM163.403 36.9592C161.763 35.3592 160.563 33.3792 159.803 31.0192C159.083 28.6592 158.823 26.2592 159.023 23.8192C159.223 21.3392 159.823 19.0392 160.823 16.9192C161.783 14.8792 163.223 13.3592 165.143 12.3592C167.063 11.3592 169.083 11.0792 171.203 11.5192C173.363 11.9192 175.183 12.9992 176.663 14.7592C177.303 15.5192 177.763 16.3192 178.043 17.1592C178.363 17.9992 178.623 19.0192 178.823 20.2192C179.023 21.4192 179.203 22.2992 179.363 22.8592C179.723 24.0592 180.063 24.6792 180.383 24.7192C180.703 24.7192 181.183 24.0992 181.823 22.8592C182.423 21.6592 182.863 20.2392 183.143 18.5992C183.423 16.9592 183.583 15.4592 183.623 14.0992C183.703 12.7392 183.943 11.2592 184.343 9.65916C184.743 8.05916 185.363 6.63916 186.203 5.39916C187.243 3.87916 188.483 2.79916 189.923 2.15916C191.363 1.47916 192.703 1.27916 193.943 1.55916C195.223 1.79916 196.323 2.53916 197.243 3.77916C198.203 5.01916 198.723 6.59916 198.803 8.51916C198.883 10.6792 198.643 12.8792 198.083 15.1192C197.523 17.3192 196.583 20.0192 195.263 23.2192C193.983 26.3792 193.183 28.4192 192.863 29.3392C192.623 29.9792 192.323 30.9192 191.963 32.1592C191.603 33.3592 191.303 34.3392 191.063 35.0992C190.823 35.8192 190.463 36.6992 189.983 37.7392C189.503 38.7792 189.003 39.6192 188.483 40.2592C187.963 40.8992 187.263 41.4992 186.383 42.0592C185.543 42.6192 184.603 43.0192 183.563 43.2592C180.243 43.9792 176.683 43.7392 172.883 42.5392C169.083 41.2992 165.923 39.4392 163.403 36.9592Z" fill="#49ACF3"/>
</svg>
